<svg width="298" height="246" viewBox="0 0 298 246" fill="none" xmlns="http://www.w3.org/2000/svg">
<path d="M32.3341 108.154C32.3491 104.816 29.8207 102.957 28.6771 100.438C26.2392 95.0674 23.1936 89.9767 20.5795 84.6812C17.12 77.6731 19.6162 71.3397 26.4427 68.9679C29.9568 67.7469 32.5459 69.563 35.0232 71.3583C41.8009 76.2698 48.4336 81.381 55.1398 86.3917C55.9084 86.9661 56.732 87.5154 57.6108 87.8842C59.7733 88.7917 62.1059 91.0386 64.3001 88.9659C65.8893 87.4647 63.1688 85.6649 63.2436 83.7997C63.4414 78.8673 60.3326 76.7796 56.2608 75.102C53.4044 73.9251 50.8779 71.9542 48.1886 70.364C38.6314 64.7128 41.7062 57.0498 46.3549 51.6294C52.8424 44.0647 60.7351 38.2541 69.9276 34.2372C77.8111 30.7921 82.9281 23.6445 90.045 19.0571C103.454 10.4141 117.681 4.47484 133.458 1.50953C161.522 -3.76494 185.711 5.34384 208.64 20.1056C210.297 21.1724 211.812 22.5182 213.212 23.9157C218.856 29.551 225.48 33.7177 232.619 37.1487C241.026 41.1886 247.68 47.4677 253.12 54.7772C258.223 61.6336 256.34 66.1019 247.689 71.5754C244.292 73.7245 241.026 76.2519 237.054 77.5525C235.364 78.1061 234.318 79.6268 234.361 81.8376C234.395 83.5999 233.648 85.3774 233.069 87.4999C232.559 88.0859 232.432 88.4077 232.76 88.8564C238.224 90.6395 241.303 86.9973 245.039 84.112C245.434 83.74 245.549 83.5736 245.928 83.2578C248.706 81.1756 251.219 79.2428 253.997 77.1016C254.396 76.7313 254.529 76.5692 254.929 76.2384C257.423 74.5237 259.651 72.9777 262.077 71.1525C262.404 70.72 262.534 70.5668 262.928 70.2672C267.248 68.1937 271.142 67.3858 274.841 71.0372C278.41 74.5598 279.454 78.4967 277.293 83.5135C276.714 84.3001 276.318 84.714 276.155 85.5727C272.562 93.0696 268.993 100.283 265.129 108.091C270.206 105.931 274.988 104.106 279.575 101.881C283.545 99.9548 287.3 98.591 291.643 100.84C294.43 102.284 297.033 103.94 297.02 107.262C297.007 110.905 297.771 114.382 294.057 117.769C285.116 125.921 277.016 134.995 268.383 143.896C270.263 144.669 272.299 144.239 274.376 144.032C279.192 143.55 284.058 143.538 288.579 145.434C292.405 147.039 295.53 149.613 295.164 154.381C294.827 158.773 292.502 162.484 288.459 163.634C282.603 165.301 276.928 167.32 271.291 169.555C269.311 170.34 267.59 171.417 267.256 173.531C266.912 175.704 268.986 176.749 270.413 177.611C274.496 180.075 278.75 182.267 283.005 184.433C286.308 186.113 288.529 188.621 289.14 192.259C290.297 199.143 284.212 204.018 276.61 202.448C272.335 201.566 268.067 200.628 263.759 199.951C262.021 199.678 259.875 199.344 258.656 201.089C257.403 202.881 258.771 204.447 259.626 206.055C262.193 210.884 265.427 215.361 267.498 220.845C267.468 221.38 267.385 221.629 267.44 221.885C267.497 222.145 267.559 222.275 267.765 222.568C268.271 226.359 268.707 229.876 264.778 232.369C258.896 234.369 254.763 231.51 250.418 228.137C249.731 227.609 249.286 227.365 248.957 227.013C241.489 219.001 241.2 219.532 231.997 224.912C217.07 233.639 201.043 238.634 184.352 242.331C171.033 245.282 157.48 245.723 144.076 245.519C120.589 245.16 97.6816 240.623 76.2439 230.55C70.6083 227.902 65.6815 223.778 59.5873 221.898C56.1166 220.827 53.2675 221.351 50.9637 224.391C49.2845 226.607 47.2602 228.561 45.5752 230.773C42.4475 234.879 38.4481 235.367 34.2419 233.183C29.3434 230.64 28.1655 226.564 29.9801 220.969C31.8227 215.287 36.225 210.967 38.1948 205.375C38.684 203.986 40.4744 202.761 38.8548 200.959C37.5006 199.452 35.7327 199.655 34.2085 199.984C29.9576 200.904 25.6088 201.097 21.3725 202.304C15.8486 203.879 10.4887 201.046 8.85506 196.392C7.18532 191.636 9.59075 186.558 15.0294 184C19.3674 181.96 23.7924 180.049 27.5836 177.112C31.8791 173.784 31.2919 171.329 25.9884 169.32C20.1717 167.116 14.268 165.117 8.55428 162.674C5.16067 161.222 2.71609 158.925 2.40374 154.558C2.01394 149.107 5.09692 146.651 9.31365 145.111C13.8939 143.437 18.7226 143.526 23.5548 144.141C25.4477 144.382 28.3726 145.257 29.0624 143.582C29.9184 141.505 27.0407 140.288 25.5864 138.874C18.0691 131.564 10.4331 124.375 3.01452 116.967C-0.226601 113.73 -0.844704 109.466 1.11452 105.461C2.72131 102.176 5.48467 99.5784 9.68975 99.9026C11.2725 100.025 12.824 100.552 14.798 100.997C15.5968 101.271 16.0033 101.388 16.6556 101.677C21.3785 103.263 25.8779 104.61 30.015 107.567C30.9424 108.001 31.1939 110.091 32.3341 108.154Z" fill="#1F2430"/>
<path d="M250.205 228.234C250.782 227.945 251.689 227.722 252.062 228.07C255.496 231.275 259.618 232.138 264.286 232.215C261.183 235.442 257.816 234.881 254.598 232.602C253.007 231.475 251.715 229.924 250.205 228.234Z" fill="#1F2430"/>
<path d="M31.9291 107.938C33.1371 108.218 34.3659 108.302 34.7677 108.922C35.2378 109.648 34.2662 110.359 33.4854 110.586C31.7125 111.104 30.7415 110.196 30.2422 108.208C30.6619 107.899 31.123 107.939 31.9291 107.938Z" fill="#1F2430"/>
<path d="M232.981 88.6469C232.24 89.1359 231.229 90.2793 230.699 88.9882C230.329 88.0874 231.544 87.9804 232.587 87.8525C232.9 88.0296 232.911 88.2076 232.981 88.6469Z" fill="#1F2430"/>
<path d="M276.375 85.6878C275.721 85.4091 274.959 84.9478 274.977 84.5189C275.01 83.7151 275.91 83.948 276.786 83.8643C276.923 84.4158 276.771 84.9678 276.375 85.6878Z" fill="#1F2430"/>
<path d="M16.7361 101.697C16.4221 101.771 15.9566 101.646 15.3486 101.311C15.6656 101.233 16.1251 101.365 16.7361 101.697Z" fill="#1F2430"/>
<path d="M245.915 83.0098C246.083 83.365 245.914 83.5725 245.502 83.8189C245.425 83.5748 245.531 83.2428 245.915 83.0098Z" fill="#1F2430"/>
<path d="M262.923 70.0107C263.068 70.3718 262.886 70.5671 262.459 70.79C262.401 70.5491 262.528 70.2248 262.923 70.0107Z" fill="#1F2430"/>
<path d="M267.999 222.561C267.762 222.484 267.622 222.106 267.585 221.434C267.824 221.513 267.959 221.887 267.999 222.561Z" fill="#1F2430"/>
<path d="M254.915 75.9883C255.069 76.3316 254.886 76.5456 254.455 76.8023C254.387 76.5645 254.512 76.2357 254.915 75.9883Z" fill="#1F2430"/>
<path d="M129.576 235.057C128.106 234.532 127.002 234.3 125.563 234.142C123.031 235.457 120.829 235.179 118.442 233.895C118.258 233.559 117.968 233.416 117.851 233.527C117.343 233.687 116.991 233.592 116.438 233.199C115.448 231.901 114.321 232.737 113.02 232.59C112.256 232.663 111.912 232.54 111.402 232.106C104.891 231.122 99.126 228.323 92.5725 227.086C92.0047 227.163 91.8226 227.181 91.4163 227.04C86.0087 224.267 80.8253 221.653 75.2836 218.977C74.8681 218.748 74.811 218.581 74.4947 218.357C67.8085 213.824 62.2427 208.49 57.6385 201.723C56.4008 201.129 56.0035 200.302 55.6438 199.055C47.6605 183.43 45.183 167.261 47.6499 150.272C48.525 144.246 50.1037 138.407 52.1603 132.306C52.5604 131.49 52.7082 130.965 52.8686 130.148C58.1891 118.667 63.7685 107.673 72.7107 98.6084C74.1092 100.698 75.3808 102.598 76.9332 104.685C77.7655 105.499 78.5843 105.904 78.9953 106.612C81.678 111.236 85.6997 112.664 91.119 111.711C97.8146 110.292 103.927 107.843 110.822 106.982C113.383 104.982 116.082 105.607 118.964 105.33C120.374 105.289 121.403 105.182 122.802 104.914C123.575 104.445 124.03 104.306 124.874 104.485C126.005 104.645 126.798 104.656 127.868 104.375C132.208 103.321 136.265 102.483 140.82 103.457C146.226 103.731 151.243 103.79 156.721 103.774C162.043 102.378 166.968 103.007 171.784 103.659C185.538 105.524 199.029 108.748 212.838 112.394C217.621 111.343 218.987 107.255 221.381 104.067C222.711 102.295 222.691 98.6526 226.798 99.7833C227.584 100.286 228.018 100.715 228.701 101.332C229.244 101.83 229.541 102.132 230.04 102.697C231.822 105.39 233.89 107.523 235.018 110.638C235.489 111.727 235.816 112.511 236.303 113.577C237.27 114.627 238.291 115.222 238.588 116.772C239.599 119.25 240.571 121.393 241.853 123.705C242.612 124.267 243.033 124.678 243.162 125.589C243.119 128.997 245.408 131.302 246.18 134.526C246.882 135.549 247.391 136.253 247.4 137.508C249.657 148.161 250.679 158.592 250.191 169.179C249.7 179.834 247.236 189.82 241.043 198.707C239.766 200.539 238.872 202.637 237.501 204.81C236.676 205.348 236.699 205.963 236.265 206.638C231.668 212.453 225.948 216.441 219.66 220.283C219.395 221.656 218.666 222.025 217.48 222.095C215.655 222.344 214.018 222.427 212.481 223.764C210.927 225.19 209.587 226.298 207.406 226.414C204.037 227.169 200.99 227.983 197.578 228.92C195.654 230.461 194.247 232.192 191.415 231.581C188.976 231.746 186.878 232.004 184.386 232.499C183.892 232.571 183.793 232.408 183.55 232.492C182.025 231.706 180.951 233.128 179.391 233.285C177.304 235.368 174.903 233.842 172.522 234.424C170.026 233.803 168.073 234.951 165.615 235.082C156.147 237.686 146.917 236.205 137.757 236.056C135.186 236.014 132.465 236.4 129.576 235.057Z" fill="#F6D28E"/>
<path d="M240.26 64.6435C239.159 64.9772 238.386 65.2079 237.404 65.666C236.901 66.1829 236.593 66.4584 235.963 66.7164C233.395 68.096 231.137 69.4794 228.545 70.9669C227.656 71.3629 227.701 71.9519 227.387 72.6598C225.303 74.571 223.441 73.8558 221.329 73.0287C214.173 70.2262 206.961 67.5577 199.715 64.9977C194.715 63.2314 193.134 64.6894 193.908 70.4817C194.854 70.6638 195.334 70.9725 195.983 71.5826C205.513 74.434 214.446 78.0885 223.668 81.9966C224.381 82.2584 224.517 82.5654 224.188 83.079C219.434 83.6333 215.656 81.2269 211.783 79.7082C196.177 73.5889 179.906 69.6712 163.391 68.6179C141.671 67.2325 119.872 68.5794 98.8148 75.1782C91.652 77.4229 84.6203 80.0907 77.5537 82.6347C76.1661 83.1342 74.8936 83.9531 73.1857 82.7873C75.5305 80.798 78.0491 79.6611 81.1002 79.1676C81.6323 78.4704 82.1684 78.3987 82.8081 78.0344C83.829 77.4562 84.7276 77.1156 85.95 76.61C86.7305 76.4218 87.1846 76.3727 87.9012 76.0805C92.6115 74.9233 96.7103 72.85 101.235 72.0438C102.895 71.748 104.721 70.1094 104.055 67.2395C103.859 66.6725 103.752 66.4814 103.439 66.0344C102.166 63.7641 100.831 63.7616 98.8081 64.6593C95.2668 66.2303 91.5367 67.3756 87.539 68.8429C87.0427 69.0704 86.893 69.1542 86.4865 69.2516C82.1097 70.7793 77.9899 72.2934 73.5406 73.9999C72.7652 74.4312 72.2921 74.5136 71.4604 74.2747C68.7579 69.2025 63.6718 67.9737 59.4424 65.7078C51.496 61.4506 51.1346 59.5596 58.0942 53.8919C61.472 51.1411 65.1157 48.717 68.9193 45.9476C69.6629 45.407 70.236 45.4021 70.9567 45.0512C72.0966 44.9263 72.9981 44.8836 73.8851 43.8158C74.3648 43.5715 74.5334 43.473 74.8557 43.125C78.9561 41.2902 82.3436 38.8818 85.3559 35.9033C86.7356 34.5391 87.9162 32.8756 90.1066 32.1811C90.7427 30.2043 91.9625 29.4635 93.8483 29.0858C95.7569 27.7603 97.6786 26.9596 98.9636 24.8256C99.5869 24.4291 99.9423 24.2541 100.573 24.1327C100.861 24.2103 101.125 24.1254 101.159 23.9912C102.738 22.1508 104.314 20.4924 107.11 20.1016C108.195 19.7301 108.957 19.4707 109.955 19.0055C112.054 17.238 114.195 16.2035 116.857 15.582C120.054 15.8764 122.398 14.1692 125.233 13.2888C126.008 11.9945 126.953 12.1866 128.172 12.1187C133.122 11.5098 137.748 11.0009 142.827 10.3822C143.474 10.2847 143.668 10.2969 144.14 10.229C144.42 10.1489 144.311 9.88756 144.349 10.0237C148.076 7.58923 151.801 9.94713 155.868 10.2377C157.337 10.7197 158.445 11.0389 159.847 11.168C161.934 10.3809 163.712 10.1985 165.826 11.4357C169.293 12.7083 172.376 13.7359 175.828 14.7371C179.698 13.5956 182.056 15.9495 184.872 17.8444C186.416 19.0376 187.758 19.9073 189.761 20.078C192.889 20.0975 194.608 22.1803 196.928 23.7504C199.794 27.1742 204.102 28.2302 207 31.5199C209.119 30.966 209.656 32.292 210.34 33.7973C214.456 38.2607 219.001 41.6972 224.826 43.8373C228.178 44.5354 230.977 45.5224 232.981 48.5385C237.561 52.1318 241.101 56.2916 244.974 60.5345C244.563 63.2665 242.699 64.0527 240.26 64.6435Z" fill="#F6D28E"/>
<path d="M95.9857 101.774C86.9055 104.576 86.8662 104.602 81.8797 97.0704C80.7365 95.3437 79.9659 93.3704 79.1543 91.7683C86.8737 87.5226 95.0031 84.8901 103.239 82.9645C109.537 81.4918 116.085 80.5263 122.394 79.2424C129.41 77.8143 136.265 77.7939 143.23 77.3651C163.737 76.1027 183.569 79.4378 203.131 85.3351C207.577 86.6755 211.783 88.4712 216.024 90.2386C216.777 90.5523 218.462 90.4107 218.229 91.7077C217.453 96.0353 213.755 98.7733 211.953 102.613C211.031 104.576 208.891 103.624 207.109 103.17C195.698 100.263 184.299 97.1027 172.561 95.9673C159.409 94.6951 146.229 94.7743 132.978 95.4978C120.461 96.1812 108.474 99.0293 95.9857 101.774Z" fill="#F6D28E"/>
<path d="M236.049 100.124C244.283 98.8996 250.263 93.7171 256.069 88.8909C259.538 86.0072 263.451 83.9795 267.074 81.2236C261.527 94.3314 252.786 105.871 248.335 119.675C247.661 118.516 246.8 117.035 245.601 115.283C244.216 112.866 243.168 110.72 241.807 108.318C240.624 108.285 240.635 107.584 240.41 106.788C239.744 105.106 239.482 103.509 237.774 102.413C236.404 102.104 236.061 101.351 236.049 100.124Z" fill="#F6D28E"/>
<path d="M53.7653 97.3098C56.0825 98.6347 58.3557 99.4423 61.0856 100.018C57.4495 106.706 51.8766 112.125 49.0981 119.679C48.6898 117.145 47.9129 114.808 46.5598 112.357C41.1252 102.514 35.9728 92.515 31.127 82.1426C39.1671 85.8046 45.1797 92.3123 52.9059 96.8359C53.2501 96.8945 53.5314 97.2747 53.7653 97.3098Z" fill="#F6D28E"/>
<path d="M48.7076 121.145C45.7625 126.972 44.4304 133.19 42.1493 139.456C39.471 141.154 38.5043 139.3 37.3858 137.113C28.7784 128.231 20.3152 119.696 11.4844 110.791C16.9915 111.584 21.4258 114.556 26.2296 116.488C32.9969 119.21 39.5167 123.206 47.7373 120.913C48.2939 120.84 48.4597 120.873 48.7076 121.145Z" fill="#F6D28E"/>
<path d="M284.493 112.587C276.136 120.959 267.885 129.034 259.478 137.443C259.418 137.945 259.515 138.114 259.357 138.141C258.078 138.319 257.053 138.639 255.616 138.904C253.525 137.502 253.256 135.571 253.072 133.258C252.439 128.857 250.385 125.297 248.783 121.049C260.653 123.214 270.021 117.407 279.771 112.893C280.892 112.373 281.94 111.221 283.827 111.797C284.349 111.955 284.474 112.123 284.493 112.587Z" fill="#F6D28E"/>
<path d="M213.122 112.243C209.849 113.224 206.632 112.474 203.47 111.45C188.695 106.665 173.487 104.487 157.601 103.776C157.587 101.596 159.245 101.842 160.714 101.881C178.698 102.365 196.139 105.697 213.122 112.243Z" fill="#1F2430"/>
<path d="M278.295 155.48C271.779 158.963 264.274 160.153 258.681 166.059C257.434 161.242 259.089 156.485 257.244 151.111C263.582 153.302 269.019 156.571 275.742 154.911C276.968 154.26 277.654 154.407 278.295 155.48Z" fill="#F6D28E"/>
<path d="M31.9033 161.024C27.5188 159.239 23.4928 157.584 19.4668 155.929C25.8588 155.777 31.9731 155.37 37.6132 152.152C38.9576 151.384 39.7112 152.281 39.4937 153.873C39.3153 155.178 39.3872 156.518 39.1968 157.82C38.8698 160.056 40.4209 163.237 38.3092 164.344C35.863 165.627 34.5309 161.89 31.9033 161.024Z" fill="#F6D28E"/>
<path d="M129.283 235.157C140.918 235.385 152.628 235.686 164.784 235.062C163.866 237.91 160.981 237.614 158.82 237.708C149.467 238.114 140.093 238.097 130.794 236.695C130.269 236.616 129.834 235.946 129.283 235.157Z" fill="#1F2430"/>
<path d="M43.3299 190.904C36.9887 188.127 30.7664 190.019 24.4531 190.681C30.7014 188.285 35.9912 184.756 40.7219 179.217C41.7315 183.217 42.5497 186.459 43.5258 190.052C43.6837 190.405 43.5555 190.85 43.3299 190.904Z" fill="#F6D28E"/>
<path d="M254.397 191.214C254.983 187.46 255.827 183.7 256.951 178.694C261.215 184.719 267.091 186.917 273.257 190.858C266.524 190.761 261.109 187.382 255.483 191.123C254.989 191.298 254.823 191.254 254.397 191.214Z" fill="#F6D28E"/>
<path d="M45.123 214.987C46.6696 211.435 48.2795 208.126 50.1639 204.252C52.0374 206.809 53.5498 208.874 54.9845 211.276C54.9069 211.613 55.2228 211.839 55.0726 211.716C51.2426 210.704 49.0072 213.554 45.9372 215.176C45.5032 215.339 45.3448 215.285 45.123 214.987Z" fill="#F6D28E"/>
<path d="M91.3041 111.367C84.8549 114.596 82.3006 113.487 77.2461 105.224C77.7048 104.9 78.4457 104.728 78.6494 104.984C81.857 109.015 85.8334 111.374 91.3041 111.367Z" fill="#1F2430"/>
<path d="M246.929 205.548C248.805 207.999 250.462 210.348 251.963 212.794C252.219 213.211 253.202 214.314 251.762 214.625C251.262 214.733 250.617 214.17 249.669 213.87C247.358 213.062 244.938 213.516 243.357 211.199C243.415 208.937 244.596 207.651 246.148 206.207C246.42 205.767 246.538 205.623 246.929 205.548Z" fill="#F6D28E"/>
<path d="M228.3 102.061C227.38 101.704 227.23 101.149 227.158 100.21C231.763 101.354 235.354 105.848 235.295 110.636C232.221 109.32 231.743 105.752 229.279 103.338C228.975 102.724 228.761 102.454 228.3 102.061Z" fill="#1F2430"/>
<path d="M141.096 103.298C137.152 103.861 133.116 104.712 128.588 104.086C132.093 100.028 136.562 101.738 141.096 103.298Z" fill="#1F2430"/>
<path d="M156.139 10.0441C152.47 10.3977 148.714 10.3948 144.672 10.2759C146.443 7.10825 152.218 6.87433 156.139 10.0441Z" fill="#1F2430"/>
<path d="M242.88 210.831C245.167 211.636 247.092 212.412 249.158 213.508C246.402 215.839 243.568 213.455 240.676 213.655C239.502 213.737 239.089 212.508 239.345 211.456C239.907 209.147 241.413 210.825 242.88 210.831Z" fill="#1F2430"/>
<path d="M278.703 155.884C277.807 155.595 277.296 155.311 276.488 154.921C278.148 151.091 281.415 153.371 284.101 153.196C284.928 153.142 285.221 154.298 284.875 155.188C284.551 156.022 283.935 156.619 282.994 156.518C281.684 156.379 280.389 156.106 278.703 155.884Z" fill="#1F2430"/>
<path d="M37.1192 137.068C38.638 137.783 40.0345 138.801 41.7604 139.828C44.0419 140.136 44.6843 141.145 43.4903 142.821C42.6069 144.06 41.2118 143.773 40.6772 142.706C39.6869 140.73 35.6497 140.875 37.1192 137.068Z" fill="#1F2430"/>
<path d="M185.093 17.7916C182.346 17.0968 179.624 16.0118 176.549 14.8192C179.456 12.3732 183.105 13.4734 185.093 17.7916Z" fill="#1F2430"/>
<path d="M119.135 105.036C117.213 107.539 114.408 106.109 111.587 106.777C111.193 106.098 108.92 105.592 110.911 104.837C113.518 103.847 116.225 103.108 119.135 105.036Z" fill="#1F2430"/>
<path d="M117.142 15.3521C115.378 17.2538 113.163 18.0559 110.55 18.7916C110.891 14.6285 113.564 14.0622 117.142 15.3521Z" fill="#1F2430"/>
<path d="M233.19 48.4418C230.643 47.3723 228.085 45.9345 225.354 44.1951C229.323 42.4614 231.824 44.1696 233.19 48.4418Z" fill="#1F2430"/>
<path d="M252.776 132.954C253.778 134.639 254.448 136.382 255.161 138.487C252.107 139.379 251.36 137.8 252.776 132.954Z" fill="#1F2430"/>
<path d="M284.758 112.884C284.372 112.699 284.358 112.515 284.283 112.058C284.433 111.541 284.6 111.151 284.86 111.074C286.487 110.592 285.898 107.129 288.651 108.246C289.466 108.577 290.096 109.324 289.801 110.161C289.041 112.31 287.287 113.001 284.758 112.884Z" fill="#1F2430"/>
<path d="M13.6094 153.024C15.2678 153.315 17.6792 151.719 17.5448 154.496C17.4791 155.853 15.9132 157.097 14.2685 156.613C12.4624 156.081 11.4371 154.904 13.6094 153.024Z" fill="#1F2430"/>
<path d="M172.289 234.708C173.949 232.491 176.298 233.479 178.734 233.264C177.87 237.945 174.907 235.549 172.289 234.708Z" fill="#1F2430"/>
<path d="M197.104 23.6741C194.691 23.3677 192.522 22.1568 190.275 20.4476C194.244 17.1979 195.118 21.4559 197.104 23.6741Z" fill="#1F2430"/>
<path d="M240.25 64.8914C241.474 63.5748 243.016 62.403 244.821 61.0381C245.997 61.0601 247.537 61.4527 246.565 62.4743C245.059 64.0566 243.51 66.455 240.25 64.8914Z" fill="#1F2430"/>
<path d="M166.159 11.3306C164.474 11.4996 162.737 11.3181 160.57 11.0573C162.131 7.19642 164.12 8.42249 166.159 11.3306Z" fill="#1F2430"/>
<path d="M107.109 19.8391C105.588 21.2677 103.744 22.546 101.547 23.8406C101.29 20.0948 103.216 18.7873 107.109 19.8391Z" fill="#1F2430"/>
<path d="M236.03 99.5311C236.536 100.459 236.896 101.095 237.358 101.997C236.56 104.082 235.428 103.799 234.566 102.369C233.864 101.204 232.459 99.8692 233.866 98.4374C234.56 97.7309 235.326 98.6374 236.03 99.5311Z" fill="#1F2430"/>
<path d="M191.27 231.809C192.888 230.632 194.701 229.776 196.864 228.981C196.79 232.853 194.583 233.339 191.27 231.809Z" fill="#1F2430"/>
<path d="M207.107 226.737C208.575 225.564 210.066 224.772 211.882 223.978C212.35 226.993 210.281 227.574 207.57 227.866C207.179 227.626 207.155 227.373 207.107 226.737Z" fill="#1F2430"/>
<path d="M247.209 205.275C247.202 205.616 246.785 205.865 246.543 205.888C245.671 205.844 245.039 205.776 244.408 205.709C245.031 204 244.966 201.818 247.316 201.177C248.47 202.601 246.909 203.72 247.209 205.275Z" fill="#1F2430"/>
<path d="M118.299 233.952C120.406 233.104 122.494 233.432 124.894 234.131C122.98 236.787 120.679 236.58 118.299 233.952Z" fill="#1F2430"/>
<path d="M223.999 83.6135C223.816 82.9316 223.833 82.6788 224.008 82.2392C224.378 80.9169 224.839 79.356 226.225 80.7506C228.018 82.5553 227.032 83.9859 224.547 84.8298C224.154 84.5954 224.11 84.3147 223.999 83.6135Z" fill="#1F2430"/>
<path d="M43.8795 191.662C45.1443 192.004 46.4977 191.589 46.8995 193.076C47.1566 194.028 46.5619 194.605 45.6589 194.74C44.0364 194.982 43.2523 194.19 43.2207 192.201C43.365 191.706 43.5146 191.595 43.8795 191.662Z" fill="#1F2430"/>
<path d="M55.2749 198.896C56.7993 198.949 57.1437 199.878 57.3388 201.234C56.7633 202.555 55.9886 202.9 55.0734 202.01C54.1476 201.111 54.034 200.089 55.2749 198.896Z" fill="#1F2430"/>
<path d="M260.133 223.884C259.874 225.373 259.26 225.927 258.186 225.08C257.282 224.368 257.256 223.414 258.17 222.69C259.243 221.842 259.856 222.41 260.133 223.884Z" fill="#1F2430"/>
<path d="M71.0933 74.4402C71.5903 74.164 72.052 74.2184 72.8621 74.2326C72.9726 75.4653 73.8079 77.5979 71.7477 77.5886C69.4369 77.5781 71.0773 75.7961 71.0933 74.4402Z" fill="#1F2430"/>
<path d="M238.952 116.934C237.314 116.7 237.356 115.24 236.508 114.148C237.941 114.3 241.331 112.886 238.952 116.934Z" fill="#1F2430"/>
<path d="M210.736 33.9791C209.525 33.3781 208.67 32.6182 207.581 31.6904C209.405 30.9683 211.735 29.9724 210.736 33.9791Z" fill="#1F2430"/>
<path d="M247.704 137.781C247.012 137.062 246.646 136.29 246.304 135.193C248.129 135.087 250.535 134.948 247.704 137.781Z" fill="#1F2430"/>
<path d="M128.155 11.8643C127.877 12.7721 127.17 13.3366 125.763 13.0598C124.725 12.7088 123.269 12.6479 123.895 11.6858C124.938 10.0826 126.49 11.17 128.155 11.8643Z" fill="#1F2430"/>
<path d="M250.598 193.937C250.928 192.862 250.792 191.497 252.171 191.783C252.56 191.863 253.069 192.808 253.019 193.306C252.859 194.906 251.93 195.11 250.598 193.937Z" fill="#1F2430"/>
<path d="M93.7095 28.8691C93.5656 30.5206 91.3155 29.9112 90.4417 31.6416C88.292 27.7143 91.7032 29.2422 93.7095 28.8691Z" fill="#1F2430"/>
<path d="M217.25 222.282C217.774 221.56 218.362 221.154 219.21 220.676C220.387 221 221.353 221.576 220.287 222.56C219.503 223.283 218.314 224.53 217.25 222.282Z" fill="#1F2430"/>
<path d="M196.212 71.4165C195.656 71.5635 195.104 71.3584 194.39 70.901C194.369 69.7814 193.858 68.283 195.368 68.5153C196.536 68.6949 196.054 70.1485 196.212 71.4165Z" fill="#1F2430"/>
<path d="M55.0483 211.719C55.8178 212.032 57.2114 211.408 57.6296 212.84C57.6857 213.033 57.426 213.493 57.2272 213.555C56.0977 213.906 55.4885 213.291 55.0338 211.94C54.9224 211.592 55.1898 211.825 55.0483 211.719Z" fill="#1F2430"/>
<path d="M40.02 223.074C39.9413 224.098 39.5699 224.657 38.7996 224.237C38.5235 224.087 38.3352 223.311 38.4708 222.963C38.7677 222.201 39.3653 222.133 40.02 223.074Z" fill="#1F2430"/>
<path d="M243.467 125.837C242.847 125.418 242.541 124.949 242.198 124.178C243.063 124.043 244.275 123.497 244.646 124.835C244.707 125.055 244.086 125.465 243.467 125.837Z" fill="#1F2430"/>
<path d="M125.149 104.328C124.76 104.693 124.308 104.753 123.513 104.782C123.037 104.092 121.456 103.759 122.356 103.097C123.189 102.485 124.498 102.74 125.149 104.328Z" fill="#1F2430"/>
<path d="M240.226 106.819C240.666 106.87 240.972 107.241 241.386 107.838C241.156 108.695 240.949 109.781 239.96 109.177C239.078 108.638 239.881 107.822 240.226 106.819Z" fill="#1F2430"/>
<path d="M259.177 138.323C259.102 137.999 259.233 137.834 259.278 137.806C259.968 137.913 260.852 138.215 260.601 138.867C260.274 139.718 259.638 139.231 259.177 138.323Z" fill="#1F2430"/>
<path d="M268.241 77.2852C268.968 77.68 268.976 78.0784 268.459 78.4314C268.35 78.5053 268.1 78.5026 267.994 78.426C267.488 78.06 267.504 77.6618 268.241 77.2852Z" fill="#1F2430"/>
<path d="M244.927 115.016C245.262 115.012 245.26 115.031 245.294 115.046C245.161 115.701 244.784 116.59 244.174 116.27C243.341 115.833 243.939 115.289 244.927 115.016Z" fill="#1F2430"/>
<path d="M40.8172 176.425C41.6083 176.202 41.8915 176.482 41.7737 177.093C41.7492 177.221 41.568 177.393 41.4396 177.412C40.8218 177.502 40.5595 177.202 40.8172 176.425Z" fill="#1F2430"/>
<path d="M257.646 218.495C257.871 219.288 257.597 219.577 256.979 219.452C256.851 219.426 256.679 219.246 256.66 219.116C256.565 218.495 256.865 218.232 257.646 218.495Z" fill="#1F2430"/>
<path d="M43.3463 218.05C42.9435 218.133 42.6983 218.056 42.4531 217.979C42.7245 217.704 42.9958 217.428 43.2672 217.153C43.3461 217.399 43.425 217.644 43.3463 218.05Z" fill="#1F2430"/>
<path d="M52.7479 130.077C52.9005 130.485 52.8343 131.082 52.4846 131.808C52.3104 131.381 52.4197 130.823 52.7479 130.077Z" fill="#1F2430"/>
<path d="M87.9063 75.8594C87.9596 76.5449 87.4427 76.6643 86.5498 76.5249C86.7309 76.2487 87.1888 76.0519 87.9063 75.8594Z" fill="#1F2430"/>
<path d="M236.317 206.699C236.219 206.207 236.384 205.592 236.875 204.993C236.994 205.531 236.787 206.054 236.317 206.699Z" fill="#1F2430"/>
<path d="M82.6587 77.8164C82.49 78.0088 82.0504 78.2208 81.3936 78.607C81.5801 78.4661 81.9839 78.151 82.6587 77.8164Z" fill="#1F2430"/>
<path d="M70.8662 44.8535C70.6933 45.1757 70.2337 45.493 69.4863 45.7806C69.6589 45.4501 70.1192 45.1494 70.8662 44.8535Z" fill="#1F2430"/>
<path d="M227.467 72.7339C227.343 72.2506 227.445 71.6168 227.879 71.0273C228.038 71.5756 227.866 72.0795 227.467 72.7339Z" fill="#1F2430"/>
<path d="M144.227 10.0639C144.27 10.486 144.014 10.6214 143.466 10.4139C143.48 10.0421 143.732 9.94417 144.227 10.0639Z" fill="#1F2430"/>
<path d="M224.194 84.8721C224.104 84.9075 224.015 84.9446 224.062 84.929C224.198 84.8763 224.195 84.8737 224.194 84.8721Z" fill="#1F2430"/>
<path d="M53.9234 97.2061C53.9992 97.3444 53.6644 97.4403 53.6644 97.4403C53.6644 97.4403 53.4022 97.2105 53.3262 97.0523C53.4737 96.8684 53.6729 96.9263 53.9234 97.2061Z" fill="#1F2430"/>
<path d="M254.214 191.389C254.309 191.236 254.479 191.253 254.902 191.307C254.867 191.414 254.578 191.486 254.214 191.389Z" fill="#1F2430"/>
<path d="M15.6686 103.327C15.7184 103.3 15.6189 103.355 15.6686 103.327Z" fill="#1F2430"/>
<path d="M44.136 191.577C44.0948 191.84 43.6543 191.859 43.4348 191.838C43.2154 191.818 43.1111 191.394 43.1075 191.175C43.1038 190.957 43.3889 190.679 43.536 190.542C43.8479 190.707 44.0126 191.01 44.136 191.577Z" fill="#F6D28E"/>
<path d="M74.2959 218.456C74.4978 218.26 74.6998 218.351 74.8833 218.746C74.6883 218.902 74.4987 218.801 74.2959 218.456Z" fill="#1F2430"/>
<path d="M91.252 227.054C91.3657 226.897 91.5392 226.912 91.9499 227.036C91.8952 227.172 91.6035 227.199 91.252 227.054Z" fill="#1F2430"/>
<path d="M207.192 227.87C207.108 227.906 207.027 227.946 207.075 227.933C207.204 227.88 207.196 227.874 207.192 227.87Z" fill="#1F2430"/>
<path d="M111.373 232.144C111.572 231.998 111.95 232.082 112.486 232.416C112.28 232.569 111.916 232.471 111.373 232.144Z" fill="#1F2430"/>
<path d="M183.46 232.82C183.406 232.74 183.697 232.549 183.845 232.642C183.992 232.735 183.793 232.921 183.793 232.921C183.793 232.921 183.514 232.899 183.46 232.82Z" fill="#1F2430"/>
<path d="M86.3535 69.3706C86.3703 69.1546 86.5122 69.0439 86.9227 68.96C87.0803 69.3619 86.8427 69.525 86.3535 69.3706Z" fill="#1F2430"/>
<path d="M116.382 233.287C116.574 233.109 116.949 233.172 117.529 233.437C117.344 233.602 116.954 233.565 116.382 233.287Z" fill="#1F2430"/>
<path d="M252.73 216.423C252.79 216.386 252.671 216.46 252.73 216.423Z" fill="#1F2430"/>
<path d="M46.7226 132.42C46.773 132.39 46.6721 132.449 46.7226 132.42Z" fill="#1F2430"/>
<path d="M74.8285 42.9561C74.9083 43.1692 74.8078 43.4624 74.4514 43.713C74.2789 43.4108 74.4297 43.1993 74.8285 42.9561Z" fill="#1F2430"/>
<path d="M103.289 65.9981C103.517 65.9684 103.802 66.1586 104.027 66.6061C103.688 66.7172 103.481 66.5021 103.289 65.9981Z" fill="#1F2430"/>
<path d="M235.961 66.6947C235.954 66.4442 236.255 66.1757 236.876 65.9004C236.887 66.1546 236.578 66.4157 235.961 66.6947Z" fill="#1F2430"/>
<path d="M100.566 24.1396C100.514 24.3668 100.167 24.5235 99.5195 24.6301C99.57 24.4098 99.9208 24.2395 100.566 24.1396Z" fill="#1F2430"/>
<path d="M48.3112 120.088C48.4424 119.871 48.768 119.857 48.9308 119.85C49.0966 120.206 49.0996 120.569 48.9459 121.158C48.7893 121.385 48.4452 121.111 48.2864 120.959C48.145 120.64 48.1625 120.472 48.3112 120.088Z" fill="#F6D28E"/>
<path d="M45.5164 215.227C45.2788 215.484 44.8953 215.576 44.5117 215.667C44.5165 215.416 44.5214 215.165 44.7933 214.829C45.0605 214.744 45.3703 215.06 45.5164 215.227Z" fill="#F6D28E"/>
<path d="M86.3995 203.677C85.0881 202.918 83.9002 202.551 83.1196 201.774C77.6614 196.343 72.4596 194.715 67.2025 202.12C66.3525 203.317 64.7121 202.654 63.5622 201.466C61.7978 199.644 61.291 197.296 62.97 195.751C65.9805 192.981 69.3413 190.577 72.4646 187.891C73.854 186.697 76.0153 187.512 77.7815 189.024C93.1964 202.212 112.219 206.278 131.422 209.371C137.722 210.385 144.364 209.052 150.824 209.34C168.374 210.121 185.079 206.699 201.315 200.232C208.295 197.451 214.175 193.003 220.272 188.838C221.204 188.201 221.688 186.947 223.055 186.898C225.264 186.819 235.101 195.974 235.304 198.279C235.444 199.861 235.186 201.487 234.001 202.398C232.611 203.466 231.293 202.149 230.048 201.458C229.904 201.377 229.736 201.293 229.648 201.164C224.531 193.741 219.485 198.398 214.872 201.571C205.124 208.277 193.979 212.227 182.828 214.318C167.626 217.169 151.91 219.347 136.383 217.392C119.29 215.241 102.146 212.484 86.3995 203.677Z" fill="#1F2430"/>
<path d="M201.438 170.748C194.296 166.004 191.07 157.957 192.815 151.583C196.125 139.486 203.859 136.218 211.991 136.314C220.62 136.415 226.898 142.259 229.277 150.985C231.287 158.357 228.595 164.419 223.937 169.322C218.963 174.557 209.122 174.736 201.438 170.748Z" fill="#1F2430"/>
<path d="M85.2215 173.108C73.0646 168.807 67.6095 155.693 73.3635 145.273C77.5131 137.759 89.6005 134.016 97.3643 137.841C106.67 142.426 110.17 151.054 107.084 161.806C104.802 169.755 96.256 174.325 85.2215 173.108Z" fill="#1F2430"/>
<path d="M127.08 199.086C125.723 197.03 124.463 195.334 123.251 193.606C122.422 192.425 122.619 191.225 123.128 189.927C123.903 187.952 125.581 189.029 126.441 189.221C130.572 190.144 133.264 192.836 133.992 197.062C134.27 198.676 133.398 200.66 132.122 201.277C130.326 202.145 128.43 201.179 127.08 199.086Z" fill="#1F2430"/>
<path d="M172.216 196.021C171.126 197.277 170.318 198.218 170.033 199.619C169.786 200.831 169.182 202.222 167.381 201.89C165.561 201.554 164.345 200.464 164.146 198.652C163.822 195.713 164.645 192.965 166.881 191.022C168.922 189.249 171.542 187.836 173.967 190.135C176.458 192.496 173.647 194.051 172.216 196.021Z" fill="#1F2430"/>
<path d="M228.161 102.177C228.373 102.115 228.657 102.323 229.045 102.777C228.844 102.831 228.538 102.638 228.161 102.177Z" fill="#1F2430"/>
<path d="M138.456 65.5855C129.539 66.7262 120.863 67.742 112.184 68.7276C109.825 68.9955 108.389 68.1463 108.175 65.5305C107.953 62.8076 109.002 61.7304 111.758 61.4044C118.842 60.5665 125.887 59.4118 134.365 58.1774C124.628 51.4771 124.499 42.4551 125.218 33.2159C125.586 28.4932 128.169 24.2684 131.334 21.536C141.219 13.0029 154.545 12.3776 164.109 20.3203C170.012 25.222 172.711 31.5922 172.805 39.2257C172.898 46.8994 169.822 53.118 163.505 58.5412C171.505 59.4877 178.624 59.7904 185.556 61.4586C187.617 61.9545 189.514 62.2057 189.287 65.0441C189.066 67.7969 187.506 68.939 184.981 68.682C179.911 68.1657 174.852 67.527 169.803 66.8366C159.931 65.4869 150.005 66.0311 139.635 65.8151C139.013 65.6407 138.855 65.545 138.456 65.5855Z" fill="#1F2430"/>
<path d="M138.453 65.7901C138.477 65.6283 138.738 65.5344 139.084 65.5887C139.17 65.7369 138.691 65.8579 138.453 65.7901Z" fill="#1F2430"/>
<path d="M213.394 145.116C219.891 148.358 222.262 152.139 221.114 157.186C220.186 161.265 215.157 165.049 210.812 164.938C204.996 164.79 200.65 160.088 201.016 154.339C201.376 148.683 206.878 144.357 213.394 145.116Z" fill="#F6D28E"/>
<path d="M88.8757 144.313C93.2397 144.808 96.6986 146.701 99.3407 150.537C102.298 153.188 101.62 155.729 99.7356 158.616C95.7296 164.66 89.2159 166.814 84.7319 163.797C79.9444 160.576 78.6384 153.948 81.8338 149.179C83.2496 147.065 85.4284 146.001 87.8975 144.711C88.2084 144.523 88.704 144.493 88.8757 144.313Z" fill="#F6D28E"/>
<path d="M99.9124 158.885C100.258 156.411 100.766 153.922 99.4697 151.153C103.022 152.563 103.332 155.707 99.9124 158.885Z" fill="#1F2430"/>
<path d="M88.9204 144.06C89.0478 144.135 88.6864 144.455 88.4476 144.489C88.2654 144.181 88.4602 144.001 88.9204 144.06Z" fill="#1F2430"/>
<path d="M162.301 47.7505C162.048 48.4242 161.946 48.7614 161.735 49.0044C159.299 51.8145 155.566 55.8867 153.029 54.379C150.543 52.902 152.345 47.39 152.289 43.6541C152.265 42.0702 153.729 42.1222 154.904 42.1011C156.569 42.0712 158.249 41.8995 159.894 42.0659C161.439 42.2222 163.648 41.234 164.358 43.1058C164.937 44.6343 163.587 46.1705 162.301 47.7505Z" fill="#F6D28E"/>
<path d="M159.09 34.939C152.102 34.9569 149.275 30.6005 151.743 24.3168C152.157 23.2644 152.55 23.0317 153.887 23.3779C158.848 24.663 162.112 28.0913 163.696 32.4173C165.11 36.282 161.135 34.3289 159.09 34.939Z" fill="#F6D28E"/>
<path d="M135.855 49.0135C134.927 47.807 134.131 46.9145 133.665 45.8744C132.583 43.4572 132.703 41.9708 136.125 41.9649C144.309 41.9507 146.606 44.6799 145.052 53.2475C144.719 55.0873 143.742 55.148 142.178 54.3301C139.766 53.0696 137.946 51.1933 135.855 49.0135Z" fill="#F6D28E"/>
<path d="M145.173 27.8608C145.136 34.0261 139.035 37.56 134.017 34.823C133.007 34.2717 133.093 33.4601 133.39 32.7833C135.071 28.9424 137.517 25.6281 141.494 24.0489C144.38 22.9033 145.738 24.3238 145.173 27.8608Z" fill="#F6D28E"/>
</svg>
