<svg width="333" height="333" viewBox="0 0 333 333" fill="none" xmlns="http://www.w3.org/2000/svg">
<g clip-path="url(#clip0_1222_642)">
<path opacity="0.58" fill-rule="evenodd" clip-rule="evenodd" d="M195.91 285.707C207.505 315.817 240.013 314.272 264.016 308.497C283.529 303.802 286.207 290.103 291.608 289.583C293.679 289.383 295.357 287.812 295.651 285.747C297.715 271.195 273.593 266.266 262.011 269.443C244.029 273.439 226.873 291.728 207.565 284.089C207.565 284.089 197.316 279.653 191.928 262.297C186.54 244.941 195.91 285.707 195.91 285.707Z" fill="#6C2F8B"/>
<path fill-rule="evenodd" clip-rule="evenodd" d="M192.86 273.832C199.906 290.635 220.805 294.844 236.41 288.704C243.596 285.913 250.868 281.271 257.955 278.234C265.041 275.197 276.956 275.517 284.355 277.675C286.786 278.381 289.65 281.364 289.057 283.236C288.657 284.508 286.799 284.988 284.655 285.667C279.233 287.378 276.729 293.592 271.002 297.348C264.535 301.584 254.498 303.342 241.571 304.255C226.333 306.04 210.036 302.53 196.803 294.771C193.046 292.567 192.86 273.832 192.86 273.832Z" fill="url(#paint0_linear_1222_642)"/>
<path d="M197.662 241.052C203.603 245.894 211.335 250.922 219.174 250.103C226.693 249.397 233.366 254.925 234.066 262.451C235.125 271.742 225.861 279.494 216.923 276.943C209.104 275.105 202.018 271.235 196.33 266.047C191.428 261.612 187.486 256.67 184.102 251.096C179.8 244.096 187.432 235.904 194.665 239.54L197.656 241.052H197.662Z" fill="url(#paint1_radial_1222_642)"/>
<path d="M133.986 241.052C128.045 245.894 120.313 250.922 112.474 250.103C104.955 249.397 98.2813 254.925 97.582 262.451C96.5231 271.742 105.787 279.494 114.725 276.943C122.544 275.105 129.63 271.235 135.318 266.047C140.219 261.612 144.162 256.67 147.545 251.096C151.848 244.096 144.215 235.904 136.983 239.54L133.992 241.052H133.986Z" fill="url(#paint2_radial_1222_642)"/>
<path d="M166.5 232.627H184.322C184.322 232.627 214.192 262.497 205.661 296.643C201.392 313.712 183.943 322.251 166.5 322.251C149.051 322.251 131.602 313.712 127.339 296.643C118.801 262.504 148.678 232.627 148.678 232.627H166.5Z" fill="url(#paint3_radial_1222_642)"/>
<path d="M113.873 301.711C115.178 301.798 116.317 301.831 117.063 301.864C118.994 302.057 119.134 302.251 120.972 300.153C122.011 298.901 123.237 296.989 124.728 294.825C128.318 289.61 135.464 288.291 140.679 291.881C145.155 294.958 146.72 300.619 144.895 305.454C143.323 310.476 141.645 315.844 137.436 320.765C132.834 326.373 125.215 330.023 118.561 331.701C109.99 334.838 100.326 330.223 97.9219 321.305C94.9515 311.255 103.49 300.872 113.879 301.711H113.873Z" fill="url(#paint4_radial_1222_642)"/>
<path d="M218.108 299.986C216.803 300.073 215.664 300.106 214.918 300.14C212.986 300.333 212.847 300.526 211.008 298.428C209.969 297.176 208.744 295.265 207.252 293.1C203.662 287.885 196.516 286.567 191.302 290.156C186.826 293.233 185.261 298.894 187.086 303.729C188.657 308.751 190.336 314.119 194.545 319.041C199.147 324.648 206.766 328.298 213.419 329.976C221.991 333.113 231.654 328.498 234.059 319.58C237.029 309.53 228.491 299.147 218.101 299.986H218.108Z" fill="url(#paint5_radial_1222_642)"/>
<path d="M260.546 113.332C273.453 111.354 286.153 106.653 296.59 98.7671C297.249 98.2143 299.187 96.5826 299.846 96.0431C300.732 95.1507 302.397 93.5323 303.296 92.6465C308.584 87.4717 317.069 87.5649 322.244 92.8596C327.971 98.6139 327.106 108.417 320.492 113.106L317.089 115.55C315.257 116.942 312.081 118.74 310.089 119.946C308.777 120.605 305.927 122.09 304.648 122.683C301.824 123.942 298.334 125.347 295.384 126.333C284.608 129.876 273.373 131.701 262.077 131.681C256.63 132.107 251.814 127.971 251.908 122.417C251.974 117.435 255.837 113.825 260.539 113.332H260.546Z" fill="#6C2F8B"/>
<path d="M275.631 135.55C287.106 135.69 299.786 134.611 309.736 128.784C315.79 125.167 323.629 127.139 327.246 133.193C330.862 139.247 328.891 147.085 322.837 150.702C318.195 153.093 312.707 154.272 307.945 155.111C296.65 156.762 285.534 156.07 274.458 153.998L272.887 153.685C261.558 150.981 264.082 134.838 275.631 135.55Z" fill="#6C2F8B"/>
<path d="M275.737 160.572C286.786 163.669 299.314 165.907 310.436 162.843C317.216 160.912 324.282 164.848 326.213 171.628C328.145 178.407 324.209 185.474 317.429 187.405C312.301 188.517 306.746 188.238 301.904 187.811C290.569 186.486 280.006 182.95 269.843 178.088L268.405 177.375C258.155 171.834 264.768 156.896 275.737 160.565V160.572Z" fill="#6C2F8B"/>
<path d="M73.626 131.668C59.3403 131.834 44.9081 129.15 31.7346 123.476C29.5701 122.643 26.5465 120.985 24.4486 119.946C22.4772 118.747 19.2804 116.942 17.4489 115.55L14.0457 113.106C8.03833 108.784 6.67303 100.412 10.9954 94.4048C15.8239 87.5384 26.0869 86.9723 31.7279 93.1328C32.4272 93.8121 34.0323 95.3905 34.685 96.0432C35.3443 96.5893 37.2557 98.1877 37.9417 98.7671C40.2261 100.452 42.7835 102.21 45.2411 103.596C53.8791 108.444 63.5894 111.714 73.4129 113.233C73.9923 113.313 74.6916 113.472 75.2311 113.566C85.967 115.95 84.5151 131.255 73.6127 131.661L73.626 131.668Z" fill="#6C2F8B"/>
<path d="M61.6645 153.679C50.096 156.01 38.4277 156.823 26.6062 155.104C22.497 154.452 18.2679 153.393 13.9789 151.768C-1.8786 145.354 6.53298 122.411 22.7834 127.792C25.8536 129.177 28.3245 130.929 31.8809 132.048C34.5583 132.927 37.4221 133.673 40.4191 134.219C46.4197 135.278 52.78 135.697 58.9205 135.544L59.7331 135.531C70.8886 135.684 72.4537 151.228 61.6645 153.673V153.679Z" fill="#6C2F8B"/>
<path d="M66.1398 177.382C55.5638 182.623 44.5015 186.426 32.64 187.818C28.4975 188.251 24.1419 188.317 19.5798 187.858C2.60344 185.76 4.80124 161.424 21.8908 162.423C25.2141 162.969 28.058 164.022 31.7809 164.188C34.5981 164.341 37.5551 164.328 40.5921 164.075C46.6593 163.549 52.9197 162.31 58.8072 160.572L59.5864 160.352C70.4022 157.615 75.93 172.227 66.1398 177.382Z" fill="#6C2F8B"/>
<path d="M279.593 166.62C279.593 225.92 229.11 240.219 166.833 240.219C104.555 240.219 54.0723 225.92 54.0723 166.62C54.0723 107.319 104.555 59.2471 166.833 59.2471C229.11 59.2471 279.593 107.319 279.593 166.62Z" fill="url(#paint6_radial_1222_642)"/>
<path d="M198.994 258.148C200.986 255.337 205.568 249.217 208.664 247.832C209.264 247.565 209.424 246.793 209.011 246.286C206.706 243.429 200.106 236.756 188.651 236.649C187.905 236.643 187.406 237.429 187.732 238.101L197.256 257.995C197.589 258.694 198.548 258.774 198.994 258.148Z" fill="url(#paint7_linear_1222_642)"/>
<path d="M133.393 258.148C131.402 255.337 126.82 249.217 123.723 247.832C123.123 247.565 122.963 246.793 123.376 246.286C125.681 243.429 132.281 236.756 143.736 236.649C144.482 236.643 144.981 237.429 144.655 238.101L135.131 257.995C134.798 258.694 133.839 258.774 133.393 258.148Z" fill="url(#paint8_linear_1222_642)"/>
<path d="M166.5 232.627H147.779C147.779 232.627 120.632 258.474 124.062 289.563C135.331 295.91 150.203 299.766 166.5 299.766C182.797 299.766 197.669 295.904 208.937 289.563C212.361 258.474 185.221 232.627 185.221 232.627H166.5Z" fill="#EFE1ED"/>
<path d="M166.826 245.694L152.341 269.73L166.826 263.15V245.701V245.694Z" fill="#8A92B2"/>
<path d="M166.826 263.144L152.341 269.724L166.826 278.288V263.144Z" fill="#636890"/>
<path d="M181.312 269.73L166.826 245.694V263.144L181.312 269.724V269.73Z" fill="#636890"/>
<path d="M166.826 278.288L181.312 269.724L166.826 263.144V278.288Z" fill="#464B76"/>
<path d="M152.348 272.475L166.833 292.888V281.033L152.348 272.475Z" fill="#8A92B2"/>
<path d="M166.826 281.033V292.888L181.318 272.475L166.826 281.033Z" fill="#636890"/>
<path d="M80.9792 201.918C90.5205 201.918 98.2552 194.184 98.2552 184.642C98.2552 175.101 90.5205 167.366 80.9792 167.366C71.4379 167.366 63.7031 175.101 63.7031 184.642C63.7031 194.184 71.4379 201.918 80.9792 201.918Z" fill="#9E54A1"/>
<path d="M254.086 201.392C263.627 201.392 271.362 193.657 271.362 184.116C271.362 174.575 263.627 166.84 254.086 166.84C244.545 166.84 236.81 174.575 236.81 184.116C236.81 193.657 244.545 201.392 254.086 201.392Z" fill="#9E54A1"/>
<path d="M93.8862 193.846C101.385 206.52 122.518 202.557 136.837 197.016C151.156 191.475 166.833 192.261 166.833 192.261C166.833 192.261 182.511 191.468 196.83 197.016C211.149 202.557 232.281 206.52 239.78 193.846" stroke="#6C2F8B" stroke-width="16.11" stroke-linecap="round" stroke-linejoin="round"/>
<path fill-rule="evenodd" clip-rule="evenodd" d="M239.261 145.354C252.002 145.354 261.792 154.052 262.345 164.735C263.204 181.465 252.002 184.116 239.261 184.116C226.52 184.116 215.372 182.597 216.177 164.735C216.75 152.028 226.52 145.354 239.261 145.354Z" fill="url(#paint9_linear_1222_642)"/>
<path fill-rule="evenodd" clip-rule="evenodd" d="M94.4058 145.354C81.6652 145.354 71.875 154.052 71.3223 164.735C70.4631 181.465 81.6652 184.116 94.4058 184.116C107.146 184.116 118.295 182.597 117.489 164.735C116.917 152.028 107.146 145.354 94.4058 145.354Z" fill="url(#paint10_linear_1222_642)"/>
<path fill-rule="evenodd" clip-rule="evenodd" d="M85.388 152.78C90.3297 152.78 94.1259 156.15 94.339 160.293C94.672 166.78 90.3297 167.805 85.388 167.805C80.4462 167.805 76.1239 167.219 76.4369 160.293C76.6567 155.364 80.4462 152.78 85.388 152.78Z" fill="white"/>
<path d="M105.242 176.976C106.893 176.976 108.232 175.637 108.232 173.985C108.232 172.334 106.893 170.995 105.242 170.995C103.59 170.995 102.251 172.334 102.251 173.985C102.251 175.637 103.59 176.976 105.242 176.976Z" fill="white"/>
<path d="M251.955 176.976C253.606 176.976 254.945 175.637 254.945 173.985C254.945 172.334 253.606 170.995 251.955 170.995C250.303 170.995 248.964 172.334 248.964 173.985C248.964 175.637 250.303 176.976 251.955 176.976Z" fill="white"/>
<path fill-rule="evenodd" clip-rule="evenodd" d="M230.297 152.78C235.238 152.78 239.035 156.15 239.248 160.293C239.581 166.78 235.238 167.805 230.297 167.805C225.355 167.805 221.033 167.219 221.346 160.293C221.565 155.364 225.355 152.78 230.297 152.78Z" fill="white"/>
<path d="M191.095 15.4713L172.42 11.4686C168.944 10.7227 165.347 10.7227 161.871 11.4686L143.196 15.4713C140.812 15.9841 138.521 16.8432 136.39 18.0087C137.402 35.1982 140.106 60.8126 147.252 81.1655L163.17 79.0077C165.381 78.708 167.625 78.7013 169.836 78.9944L187.006 81.2588C194.178 60.8925 196.889 35.2182 197.901 18.0087C195.77 16.8432 193.486 15.9841 191.095 15.4713Z" fill="#6CBCC6"/>
<path d="M131.568 83.2903L147.252 81.1657C146.933 80.2533 146.62 79.3209 146.32 78.3818C141.458 79.1677 136.17 80.6662 131.075 83.3435C131.242 83.3236 131.408 83.3102 131.568 83.2903Z" fill="#83CFDC"/>
<path d="M136.39 18.0088C135.264 18.6282 134.179 19.3275 133.153 20.1133L111.222 36.9432C106.433 40.6195 103.123 45.8942 101.898 51.8083C100.066 60.6528 103.123 69.8036 109.896 75.7776L111.548 77.2362C111.628 77.3028 111.708 77.3694 111.788 77.436C121.378 68.7513 132.394 64.6288 142.164 62.8306C138.701 46.9198 137.109 30.3098 136.383 18.0154L136.39 18.0088Z" fill="#83CFDC"/>
<path d="M187.006 81.2589L202.77 83.3368C202.876 83.3501 202.976 83.3568 203.083 83.3701C198.035 80.7127 192.793 79.2142 187.958 78.415C187.645 79.3741 187.332 80.3265 186.999 81.2589H187.006Z" fill="#83CFDC"/>
<path d="M224.395 75.7776C231.168 69.8036 234.225 60.6528 232.393 51.8083C231.168 45.8942 227.865 40.6195 223.069 36.9432L201.138 20.1133C200.112 19.3275 199.027 18.6282 197.901 18.0088C197.175 30.3165 195.584 46.9398 192.114 62.8572C201.871 64.6821 212.846 68.8179 222.403 77.5092C222.503 77.4293 222.603 77.3494 222.696 77.2628L224.388 75.771L224.395 75.7776Z" fill="#83CFDC"/>
<path d="M192.114 62.857C180.659 60.7192 153.539 60.7258 142.164 62.8237C132.387 64.6219 121.378 68.7445 111.788 77.4291C117.109 82.0045 124.102 84.149 131.068 83.3432C136.163 80.6725 141.451 79.174 146.313 78.3815C155.351 76.9163 162.91 77.882 164.988 78.2083C165.654 78.3748 166.34 78.4681 167.046 78.4547C167.752 78.4614 168.438 78.3748 169.104 78.2083C171.195 77.882 178.847 76.9096 187.958 78.4148C192.793 79.214 198.035 80.7125 203.083 83.3698C210.063 84.2023 217.062 82.0778 222.404 77.509C212.846 68.8177 201.871 64.6752 192.114 62.857Z" fill="#499498"/>
<path d="M207.292 79.5342C207.292 88.2721 186.113 97.2831 167.145 97.2831C148.178 97.2831 126.999 88.2788 126.999 79.5342C126.999 70.7896 148.178 77.9158 167.145 77.9158C186.113 77.9158 207.292 70.7963 207.292 79.5342Z" fill="#83CFDC"/>
<path d="M167.146 81.2587C181.119 81.2587 192.447 76.4252 192.447 70.4629C192.447 64.5005 181.119 59.667 167.146 59.667C153.172 59.667 141.844 64.5005 141.844 70.4629C141.844 76.4252 153.172 81.2587 167.146 81.2587Z" fill="#EAED99"/>
<path d="M167.146 78.5679C179.659 78.5679 189.803 74.939 189.803 70.4626C189.803 65.9863 179.659 62.3574 167.146 62.3574C154.632 62.3574 144.488 65.9863 144.488 70.4626C144.488 74.939 154.632 78.5679 167.146 78.5679Z" fill="#CDBF88"/>
</g>
<defs>
<linearGradient id="paint0_linear_1222_642" x1="197.329" y1="293.959" x2="304.781" y2="271.235" gradientUnits="userSpaceOnUse">
<stop offset="0.37" stop-color="#6C2F8B"/>
<stop offset="1" stop-color="#8B51A0"/>
</linearGradient>
<radialGradient id="paint1_radial_1222_642" cx="0" cy="0" r="1" gradientUnits="userSpaceOnUse" gradientTransform="translate(208.555 258.393) scale(22.7687 22.7687)">
<stop stop-color="#B8AED6"/>
<stop offset="0.13" stop-color="#B7ADD4"/>
<stop offset="0.25" stop-color="#B6A9D1"/>
<stop offset="0.38" stop-color="#B1A1CD"/>
<stop offset="0.5" stop-color="#AA94C4"/>
<stop offset="0.63" stop-color="#9E85BE"/>
<stop offset="0.75" stop-color="#8E78B4"/>
<stop offset="0.88" stop-color="#8165A9"/>
<stop offset="1" stop-color="#785BA4"/>
</radialGradient>
<radialGradient id="paint2_radial_1222_642" cx="0" cy="0" r="1" gradientUnits="userSpaceOnUse" gradientTransform="translate(116.691 258.393) rotate(180) scale(22.7687 22.7687)">
<stop stop-color="#B8AED6"/>
<stop offset="0.13" stop-color="#B7ADD4"/>
<stop offset="0.25" stop-color="#B6A9D1"/>
<stop offset="0.38" stop-color="#B1A1CD"/>
<stop offset="0.5" stop-color="#AA94C4"/>
<stop offset="0.63" stop-color="#9E85BE"/>
<stop offset="0.75" stop-color="#8E78B4"/>
<stop offset="0.88" stop-color="#8165A9"/>
<stop offset="1" stop-color="#785BA4"/>
</radialGradient>
<radialGradient id="paint3_radial_1222_642" cx="0" cy="0" r="1" gradientUnits="userSpaceOnUse" gradientTransform="translate(159.029 248.105) rotate(180) scale(42.0939 42.0939)">
<stop stop-color="#B8AED6"/>
<stop offset="0.13" stop-color="#B7ADD4"/>
<stop offset="0.25" stop-color="#B6A9D1"/>
<stop offset="0.38" stop-color="#B1A1CD"/>
<stop offset="0.5" stop-color="#AA94C4"/>
<stop offset="0.63" stop-color="#9E85BE"/>
<stop offset="0.75" stop-color="#8E78B4"/>
<stop offset="0.88" stop-color="#8165A9"/>
<stop offset="1" stop-color="#785BA4"/>
</radialGradient>
<radialGradient id="paint4_radial_1222_642" cx="0" cy="0" r="1" gradientUnits="userSpaceOnUse" gradientTransform="translate(121.478 311.268) scale(22.8305 22.8305)">
<stop stop-color="#B8AED6"/>
<stop offset="0.13" stop-color="#B7ADD4"/>
<stop offset="0.25" stop-color="#B6A9D1"/>
<stop offset="0.38" stop-color="#B1A1CD"/>
<stop offset="0.5" stop-color="#AA94C4"/>
<stop offset="0.63" stop-color="#9E85BE"/>
<stop offset="0.75" stop-color="#8E78B4"/>
<stop offset="0.88" stop-color="#8165A9"/>
<stop offset="1" stop-color="#785BA4"/>
</radialGradient>
<radialGradient id="paint5_radial_1222_642" cx="0" cy="0" r="1" gradientUnits="userSpaceOnUse" gradientTransform="translate(210.496 309.544) rotate(180) scale(22.8305 22.8305)">
<stop stop-color="#B8AED6"/>
<stop offset="0.13" stop-color="#B7ADD4"/>
<stop offset="0.25" stop-color="#B6A9D1"/>
<stop offset="0.38" stop-color="#B1A1CD"/>
<stop offset="0.5" stop-color="#AA94C4"/>
<stop offset="0.63" stop-color="#9E85BE"/>
<stop offset="0.75" stop-color="#8E78B4"/>
<stop offset="0.88" stop-color="#8165A9"/>
<stop offset="1" stop-color="#785BA4"/>
</radialGradient>
<radialGradient id="paint6_radial_1222_642" cx="0" cy="0" r="1" gradientUnits="userSpaceOnUse" gradientTransform="translate(166.833 149.736) scale(102.231 102.231)">
<stop stop-color="#B8AED6"/>
<stop offset="0.13" stop-color="#B7ADD4"/>
<stop offset="0.25" stop-color="#B6A9D1"/>
<stop offset="0.38" stop-color="#B1A1CD"/>
<stop offset="0.5" stop-color="#AA94C4"/>
<stop offset="0.63" stop-color="#9E85BE"/>
<stop offset="0.75" stop-color="#8E78B4"/>
<stop offset="0.88" stop-color="#8165A9"/>
<stop offset="1" stop-color="#785BA4"/>
</radialGradient>
<linearGradient id="paint7_linear_1222_642" x1="211.069" y1="251.608" x2="167.885" y2="240.905" gradientUnits="userSpaceOnUse">
<stop stop-color="#EFE1ED"/>
<stop offset="1" stop-color="#8A8796"/>
</linearGradient>
<linearGradient id="paint8_linear_1222_642" x1="121.318" y1="251.608" x2="164.502" y2="240.905" gradientUnits="userSpaceOnUse">
<stop stop-color="#EFE1ED"/>
<stop offset="1" stop-color="#8A8796"/>
</linearGradient>
<linearGradient id="paint9_linear_1222_642" x1="240.616" y1="183.846" x2="240.616" y2="145.093" gradientUnits="userSpaceOnUse">
<stop stop-color="#1B224E"/>
<stop offset="1" stop-color="#3858A6"/>
</linearGradient>
<linearGradient id="paint10_linear_1222_642" x1="95.8028" y1="-1120.7" x2="95.8028" y2="-1128.86" gradientUnits="userSpaceOnUse">
<stop stop-color="#1B224E"/>
<stop offset="1" stop-color="#3858A6"/>
</linearGradient>
<clipPath id="clip0_1222_642">
<rect width="333" height="333" fill="white"/>
</clipPath>
</defs>
</svg>
